<svg data-name="Layer 1" xmlns="http://www.w3.org/2000/svg" width="981.7893676757812" height="728.4767456054688"><rect id="backgroundrect" width="100%" height="100%" x="0" y="0" fill="none" stroke="none"/><title>helpful_notifications</title><g class="currentLayer" style=""><title>Layer 1</title><path fill="#a8d8ff" fill-opacity="1" stroke="none" stroke-opacity="1" stroke-width="1" stroke-dasharray="none" stroke-linejoin="miter" stroke-linecap="butt" stroke-dashoffset="" fill-rule="nonzero" opacity="1" marker-start="" marker-mid="" marker-end="" d="M-241.11111736297607,178.49998474121094 C-241.11111736297607,-67.63261413574219 -38.83486461639404,-267.00001525878906 210.88888263702393,-267.00001525878906 C460.6126375198364,-267.00001525878906 662.8888826370239,-67.63261413574219 662.8888826370239,178.49998474121094 C662.8888826370239,424.63255310058594 460.6126375198364,623.9999847412109 210.88888263702393,623.9999847412109 C-38.83486461639404,623.9999847412109 -241.11111736297607,424.63255310058594 -241.11111736297607,178.49998474121094 z" id="svg_34" class=""/><path d="M536.8745498657227,720.0000305175781 H143.89234161376953 s-7.965859889984131,-116.83255004882812 39.16545104980469,-118.16020202636719 S224.87854766845703,653.6178894042969 283.9586868286133,580.5975036621094 s130.77279663085938,-69.03742218017578 140.06629943847656,-25.888999938964844 s-17.923179626464844,77.6670913696289 31.863420486450195,67.0459976196289 S577.3677139282227,639.0138244628906 536.8745498657227,720.0000305175781 z" fill="#256aff" id="svg_1"/><path d="M333.74976348876953,720.0265808105469 l-1.3263399600982666,-0.05316000059247017 c3.093179941177368,-76.92159271240234 19.203170776367188,-126.34452056884766 32.17300033569336,-154.25936889648438 c14.082220077514648,-30.310510635375977 27.652299880981445,-42.58082962036133 27.787790298461914,-42.70140838623047 l0.8822900056838989,0.992169976234436 c-0.13354000449180603,0.11928000301122665 -13.545459747314453,12.267729759216309 -27.51487922668457,42.3730583190918 C352.85343170166016,594.1747131347656 336.8316116333008,643.3947448730469 333.74976348876953,720.0265808105469 z" fill="#f2f2f2" id="svg_2"/><path d="M475.9799575805664,720.1853942871094 l-1.2744899988174438,-0.3707999885082245 c15.347000122070312,-52.67655944824219 51.48699951171875,-85.93499755859375 51.850669860839844,-86.26499938964844 l0.8920000195503235,0.9827700257301331 C527.0877456665039,634.8597106933594 491.21805572509766,667.8829040527344 475.9799575805664,720.1853942871094 z" fill="#f2f2f2" id="svg_3"/><path d="M205.78882598876953,720.0914001464844 l-1.3153200149536133,-0.1828099936246872 c5.206850051879883,-37.552581787109375 -4.198480129241943,-66.68811798095703 -13.005780220031738,-84.51664733886719 c-9.536270141601562,-19.304000854492188 -20.41699981689453,-29.847320556640625 -20.525949478149414,-29.951690673828125 l0.9185900092124939,-0.9581400156021118 c0.11052999645471573,0.10566999763250351 11.159520149230957,10.811090469360352 20.797569274902344,30.32185935974121 C201.54755401611328,652.7997741699219 211.04199981689453,682.2043762207031 205.78882598876953,720.0914001464844 z" fill="#f2f2f2" id="svg_4"/><rect x="763.7893676757812" y="26" width="2" height="185" fill="#3f3d56" id="svg_5"/><path d="M711.6562271118164,684.0862731933594 c-5.685070037841797,21.015430450439453 -25.1577091217041,34.030818939208984 -25.1577091217041,34.030818939208984 s-10.255330085754395,-21.05735969543457 -4.570260047912598,-42.07278823852539 s25.1577091217041,-34.03081130981445 25.1577091217041,-34.03081130981445 S717.3412857055664,663.0708312988281 711.6562271118164,684.0862731933594 z" fill="#ff8a5c" id="svg_6" class="" fill-opacity="1"/><path d="M659.9379653930664,684.0862731933594 c5.685070037841797,21.015430450439453 25.1577091217041,34.030818939208984 25.1577091217041,34.030818939208984 s10.255330085754395,-21.05735969543457 4.570260047912598,-42.07278823852539 s-25.1577091217041,-34.03081130981445 -25.1577091217041,-34.03081130981445 S654.2529067993164,663.0708312988281 659.9379653930664,684.0862731933594 z" fill="#fed095" id="svg_7" class="" fill-opacity="1"/><path d="M668.2917861938477,679.5697937011719 c15.599909782409668,15.185890197753906 17.505329132080078,38.530120849609375 17.505329132080078,38.530120849609375 s-23.386999130249023,-1.2769399881362915 -38.9869499206543,-16.462820053100586 s-17.505329132080078,-38.530120849609375 -17.505329132080078,-38.530120849609375 S652.6918716430664,664.3839416503906 668.2917861938477,679.5697937011719 z" fill="#3f3d56" id="svg_8"/><path d="M703.3024063110352,679.5697937011719 c-15.599909782409668,15.185890197753906 -17.505319595336914,38.530120849609375 -17.505319595336914,38.530120849609375 s23.386999130249023,-1.2769399881362915 38.9869384765625,-16.462820053100586 s17.505329132080078,-38.530120849609375 17.505329132080078,-38.530120849609375 S718.9023208618164,664.3839416503906 703.3024063110352,679.5697937011719 z" fill="#3f3d56" id="svg_9"/><ellipse cx="417.5" cy="718.7794189453125" rx="417.5" ry="9.69734001159668" fill="#3f3d56" id="svg_10"/><path d="M234.61005401611328,466.0639953613281 l-5.541190147399902,48.48542022705078 S209.67469024658203,561.6495666503906 206.90409088134766,596.2820129394531 L204.13349151611328,635.0703430175781 h18.008869171142578 s23.55006980895996,-55.41191101074219 24.935359954833984,-70.65019226074219 L280.32486724853516,463.2933654785156 z" fill="#a0616a" id="svg_11"/><path d="M305.2602310180664,466.0639953613281 l-5.541190147399902,48.48542022705078 s-19.3941707611084,47.100128173828125 -22.16476058959961,81.7325668334961 L274.78369903564453,635.0703430175781 h18.008869171142578 s23.55006980895996,-55.41191101074219 24.935359954833984,-70.65019226074219 L350.9750747680664,463.2933654785156 z" fill="#a0616a" id="svg_12"/><path d="M320.4985122680664,353.8548889160156 l15.238280296325684,38.7883415222168 s-1.3853000402450562,33.24715042114258 16.62356948852539,30.47654914855957 s-2.7706000804901123,-36.017738342285156 -2.7706000804901123,-36.017738342285156 L338.5073928833008,346.9283752441406 S324.6543960571289,344.1578063964844 320.4985122680664,353.8548889160156 z" fill="#a0616a" id="svg_13"/><circle cx="294.8705139160156" cy="204.93536376953125" r="24.935359954833984" fill="#a0616a" id="svg_14"/><path d="M276.16898345947266,212.55450439453125 s-8.311790466308594,27.70599937438965 -13.852999687194824,27.70599937438965 s37.40299987792969,16.62356948852539 37.40299987792969,16.62356948852539 s-11.082380294799805,-11.082380294799805 0,-31.86185073852539 z" fill="#a0616a" id="svg_15"/><path d="M249.84833526611328,363.5519714355469 L213.83057403564453,468.8346252441406 s12.467679977416992,6.92648983001709 33.24713897705078,6.92648983001709 s113.59442901611328,-2.77059006690979 114.97972106933594,-11.082380294799805 S332.96619415283203,363.5519714355469 332.96619415283203,363.5519714355469 l-5.541190147399902,-34.632450103759766 L259.5453872680664,346.9283752441406 z" fill="#2f2e41" id="svg_16"/><path d="M226.29825592041016,633.6850280761719 H201.3628921508789 l-4.155889987945557,18.008869171142578 s-8.311790466308594,5.541190147399902 -5.541190147399902,18.008869171142578 s1.3853000402450562,38.7883415222168 1.3853000402450562,38.7883415222168 l27.705949783325195,18.008869171142578 s8.311790466308594,-9.6970796585083 2.7706000804901123,-26.320659637451172 z" fill="#2f2e41" id="svg_17"/><path d="M296.9484634399414,633.6850280761719 H272.01306915283203 l-4.155889987945557,18.008869171142578 s-8.311790466308594,5.541190147399902 -5.541190147399902,18.008869171142578 s1.3853000402450562,38.7883415222168 1.3853000402450562,38.7883415222168 l27.70599937438965,18.008869171142578 s8.311790466308594,-9.6970796585083 2.7706000804901123,-26.320659637451172 z" fill="#2f2e41" id="svg_18"/><path d="M270.6277847290039,237.4898681640625 s19.20924949645996,5.09991979598999 24.842899322509766,10.861749649047852 l9.78954029083252,5.761829853057861 l12.467679977416992,26.320650100708008 s9.697090148925781,4.155900001525879 9.697090148925781,22.164770126342773 s13.852999687194824,48.48542022705078 13.852999687194824,48.48542022705078 s9.6970796585083,8.311790466308594 2.77059006690979,12.467690467834473 s-15.238269805908203,4.155889987945557 -15.238269805908203,4.155889987945557 s6.92648983001709,-26.320659637451172 -6.92648983001709,-27.70599937438965 s-20.779470443725586,-2.77059006690979 -22.164770126342773,0 s-38.7883415222168,42.94424057006836 -54.026611328125,38.7883415222168 s-6.92648983001709,-45.71482849121094 -6.92648983001709,-45.71482849121094 l12.467679977416992,-96.9708480834961 s9.6970796585083,-1.3852900266647339 15.238269805908203,0 S270.6277847290039,237.4898681640625 270.6277847290039,237.4898681640625 z" fill="#d0cde1" id="svg_19"/><path d="M223.5276870727539,353.8548889160156 l15.238280296325684,38.7883415222168 S237.38068389892578,425.890380859375 255.3895034790039,423.1197814941406 s-2.77059006690979,-36.017738342285156 -2.77059006690979,-36.017738342285156 L241.53653717041016,346.9283752441406 S227.68354034423828,344.1578063964844 223.5276870727539,353.8548889160156 z" fill="#a0616a" id="svg_20"/><path d="M254.00421905517578,237.4898681640625 l-2.77059006690979,-1.3853000402450562 s-8.311790466308594,-8.311779975891113 -18.008869171142578,2.7706000804901123 s-19.3941707611084,69.264892578125 -19.3941707611084,69.264892578125 v18.008869171142578 s-11.082389831542969,15.238280296325684 -1.3853000402450562,23.55006980895996 S223.5276870727539,359.3960876464844 223.5276870727539,359.3960876464844 s9.697090148925781,-13.852999687194824 20.779470443725586,-6.92648983001709 l1.3853000402450562,-5.541190147399902 a17.144500732421875,17.144500732421875 0 0 0 2.77059006690979,-4.155889987945557 c1.3853000402450562,-2.7706000804901123 4.155900001525879,1.3853000402450562 2.7706000804901123,-2.7706000804901123 s0,-5.541190147399902 0,-6.92648983001709 s1.3853000402450562,-8.311779975891113 1.3853000402450562,-8.311779975891113 l-1.3853000402450562,-42.94424057006836 z" fill="#d0cde1" id="svg_21"/><path d="M325.93961334228516,199.02767944335938 s20.256999969482422,-44.16535186767578 -32.683799743652344,-44.1179084777832 c0,0 -32.47999954223633,-17.06281089782715 -57.21392059326172,22.50748062133789 L210.5177993774414,219.02236938476562 l6.521329879760742,-1.2962299585342407 l0.8277199864387512,6.491919994354248 l8.321000099182129,5.1048197746276855 l6.25855016708374,-6.4679999351501465 l-1.0351899862289429,9.901459693908691 l71.69657135009766,30.448469161987305 s-27.030540466308594,-29.933000564575195 -16.603609085083008,-65.22428131103516 l4.2328200340271,8.639249801635742 z" fill="#ff8a5c" id="svg_22" class="" fill-opacity="1"/><ellipse cx="282.28936767578125" cy="212" rx="3.5" ry="7" fill="#a0616a" id="svg_23"/><polygon points="843.789 26 843.789 0 574.989 0 552.789 0 552.589 0 552.589 558 535.789 558 535.789 712 591.789 712 591.789 558 574.989 558 574.989 26 843.789 26" fill="#3f3d56" id="svg_24"/><ellipse cx="762.5671453475952" cy="26" rx="79" ry="14" fill="#ff8a5c" id="svg_25" class="" fill-opacity="1"/><rect x="603.7893676757812" y="207" width="322" height="176" fill="#256aff" id="svg_26"/><rect x="631.7893676757812" y="250.8345947265625" width="222" height="110.16541290283203" fill="#f2f2f2" id="svg_27"/><path d="M898.7893447875977,362 h-268 v-134 h268 zm-266,-2 h264 v-130 h-264 z" fill="#3f3d56" id="svg_28"/><rect x="670.8201293945312" y="283.9169921875" width="143.9384765625" height="2" fill="#3f3d56" id="svg_29" class=""/><rect x="670.8201293945312" y="304.9169921875" width="143.9384765625" height="2" fill="#3f3d56" id="svg_30"/><rect x="670.8201293945312" y="325.9169921875" width="143.9384765625" height="2" fill="#3f3d56" id="svg_31"/><circle cx="920.7893676757812" cy="199" r="46" fill="#3f3d56" id="svg_32"/><path d="M920.9807510375977,212.8486328125 l-23.020000457763672,-23.020000457763672 a4.000259876251221,4.000259876251221 0 1 1 5.657219886779785,-5.657219886779785 l16.979999542236328,16.979999542236328 l54.184078216552734,-61.78858184814453 a3.9998600482940674,3.9998600482940674 0 0 1 6.014649868011475,5.274419784545898 z" fill="#256aff" id="svg_33"/></g></svg>